# xmcd
#
# Track frame offsets: 
#        150
#        19052
#        34187
#        56642
#        70895
#        93552
#        111370
#        129517
#        147037
#        165605
#        183402
#
# Disc length: 2691 seconds
#
# Revision: 2
# Processed by: cddbd v1.5.2PL0 Copyright (c) Steve Scherf et al.
# Submitted via: ExactAudioCopy v1.0b3
#
DISCID=980a810b
DTITLE=UFO - MECHANIX (REMASTERED)
DYEAR=1982
DGENRE=Hard Rock
TTITLE0=The Writer - 1999 Remaster
TTITLE1=Somethin' Else - 1999 Remaster
TTITLE2=Back Into My Life - 1999 Remaster
TTITLE3=You'll Get Love - 1999 Remaster
TTITLE4=Doing It All For You - 1999 Remaster
TTITLE5=We Belong To The Night - 1999 Remaster
TTITLE6=Let It Rain - 1999 Remaster
TTITLE7=Terri - 1999 Remaster
TTITLE8=Feel It - 1999 Remaster
TTITLE9=Dreaming - 1999 Remaster
TTITLE10=Heel Of A Stranger - 1999 Remaster
EXTD=YEAR: 1982
EXTT0=
EXTT1=
EXTT2=
EXTT3=
EXTT4=
EXTT5=
EXTT6=
EXTT7=
EXTT8=
EXTT9=
EXTT10=
PLAYORDER=
